<svg width="100" height="100" viewBox="0 0 100 100" fill="none" xmlns="http://www.w3.org/2000/svg">
<path d="M99.3622 49.9937C99.3622 22.7282 77.2586 0.624542 49.9931 0.624542C22.7277 0.624689 0.624939 22.7282 0.624939 49.9937C0.62503 77.2591 22.7278 99.3627 49.9931 99.3628C77.2586 99.3628 99.3622 77.2591 99.3622 49.9937Z" fill="#F5A500" stroke="black" stroke-width="1.25"/>
<path d="M50.5705 93.2267C50.5705 93.5719 50.2906 93.8515 49.9458 93.8515C49.6005 93.8515 49.321 93.5719 49.321 93.2267C49.321 92.8819 49.6005 92.6019 49.9458 92.6019C50.2906 92.6019 50.5705 92.8819 50.5705 93.2267Z" fill="black"/>
<path d="M52.821 93.0102C52.821 93.355 52.5414 93.6346 52.1962 93.6346C51.8514 93.6346 51.5714 93.355 51.5714 93.0102C51.5714 92.665 51.8514 92.385 52.1962 92.385C52.5414 92.385 52.821 92.665 52.821 93.0102Z" fill="black"/>
<path d="M55.0723 92.7831C55.0723 93.1279 54.7923 93.4079 54.4471 93.4079C54.1023 93.4079 53.8223 93.1279 53.8223 92.7831C53.8223 92.4379 54.1023 92.1579 54.4471 92.1579C54.7923 92.1579 55.0723 92.4379 55.0723 92.7831Z" fill="black"/>
<path d="M57.3232 92.5561C57.3232 92.9009 57.0432 93.1808 56.6984 93.1808C56.3532 93.1808 56.0732 92.9009 56.0732 92.5561C56.0732 92.2108 56.3532 91.9308 56.6984 91.9308C57.0432 91.9308 57.3232 92.2108 57.3232 92.5561Z" fill="black"/>
<path d="M59.5644 92.2814C59.5644 92.6266 59.2844 92.9066 58.9396 92.9066C58.5944 92.9066 58.3144 92.6266 58.3144 92.2814C58.3144 91.9366 58.5944 91.6566 58.9396 91.6566C59.2844 91.6566 59.5644 91.9366 59.5644 92.2814Z" fill="black"/>
<path d="M61.7249 91.6108C61.7249 91.9556 61.4449 92.2355 61.0997 92.2355C60.7549 92.2355 60.4749 91.9556 60.4749 91.6108C60.4749 91.2655 60.7549 90.9855 61.0997 90.9855C61.4449 90.9855 61.7249 91.2655 61.7249 91.6108Z" fill="black"/>
<path d="M63.8854 90.9401C63.8854 91.2853 63.6058 91.5649 63.2606 91.5649C62.9154 91.5649 62.6358 91.2853 62.6358 90.9401C62.6358 90.5953 62.9154 90.3153 63.2606 90.3153C63.6058 90.3153 63.8854 90.5953 63.8854 90.9401Z" fill="black"/>
<path d="M66.0459 90.2695C66.0459 90.6143 65.7659 90.8943 65.4211 90.8943C65.0758 90.8943 64.7959 90.6143 64.7959 90.2695C64.7959 89.9242 65.0758 89.6443 65.4211 89.6443C65.7659 89.6443 66.0459 89.9242 66.0459 90.2695Z" fill="black"/>
<path d="M68.1455 89.4551C68.1455 89.8003 67.866 90.0803 67.5207 90.0803C67.1755 90.0803 66.8964 89.8003 66.8964 89.4551C66.8964 89.1103 67.1755 88.8308 67.5207 88.8308C67.866 88.8308 68.1455 89.1103 68.1455 89.4551Z" fill="black"/>
<path d="M70.1341 88.3762C70.1341 88.7219 69.8541 89.001 69.5088 89.001C69.164 89.001 68.8845 88.7219 68.8845 88.3762C68.8845 88.0309 69.164 87.7514 69.5088 87.7514C69.8541 87.7514 70.1341 88.0309 70.1341 88.3762Z" fill="black"/>
<path d="M72.1221 87.2977C72.1221 87.6425 71.8426 87.922 71.4974 87.922C71.1521 87.922 70.8726 87.6425 70.8726 87.2977C70.8726 86.9524 71.1521 86.6725 71.4974 86.6725C71.8426 86.6725 72.1221 86.9524 72.1221 87.2977Z" fill="black"/>
<path d="M74.1107 86.2179C74.1107 86.5631 73.8307 86.8431 73.4859 86.8431C73.1407 86.8431 72.8607 86.5631 72.8607 86.2179C72.8607 85.8731 73.1407 85.5931 73.4859 85.5931C73.8307 85.5931 74.1107 85.8731 74.1107 86.2179Z" fill="black"/>
<path d="M75.9387 84.9017C75.9387 85.247 75.6592 85.527 75.314 85.527C74.9692 85.527 74.6896 85.247 74.6896 84.9017C74.6896 84.5569 74.9692 84.2774 75.314 84.2774C75.6592 84.2774 75.9387 84.5569 75.9387 84.9017Z" fill="black"/>
<path d="M77.6839 83.4626C77.6839 83.8074 77.4039 84.0874 77.0591 84.0874C76.7139 84.0874 76.4339 83.8074 76.4339 83.4626C76.4339 83.1174 76.7139 82.8374 77.0591 82.8374C77.4039 82.8374 77.6839 83.1174 77.6839 83.4626Z" fill="black"/>
<path d="M79.4286 82.0226C79.4286 82.3678 79.149 82.6473 78.8038 82.6473C78.459 82.6473 78.179 82.3678 78.179 82.0226C78.179 81.6778 78.459 81.3978 78.8038 81.3978C79.149 81.3978 79.4286 81.6778 79.4286 82.0226Z" fill="black"/>
<path d="M81.1737 80.583C81.1737 80.9282 80.8938 81.2082 80.549 81.2082C80.2037 81.2082 79.9237 80.9282 79.9237 80.583C79.9237 80.2382 80.2037 79.9582 80.549 79.9582C80.8938 79.9582 81.1737 80.2382 81.1737 80.583Z" fill="black"/>
<path d="M82.6169 78.8409C82.6169 79.1861 82.3369 79.4661 81.9921 79.4661C81.6469 79.4661 81.3669 79.1861 81.3669 78.8409C81.3669 78.4961 81.6469 78.2161 81.9921 78.2161C82.3369 78.2161 82.6169 78.4961 82.6169 78.8409Z" fill="black"/>
<path d="M84.0565 77.0962C84.0565 77.441 83.7765 77.721 83.4312 77.721C83.0864 77.721 82.8069 77.441 82.8069 77.0962C82.8069 76.7509 83.0864 76.4714 83.4312 76.4714C83.7765 76.4714 84.0565 76.7509 84.0565 77.0962Z" fill="black"/>
<path d="M85.4961 75.351C85.4961 75.6963 85.2165 75.9763 84.8713 75.9763C84.5265 75.9763 84.2469 75.6963 84.2469 75.351C84.2469 75.0062 84.5265 74.7267 84.8713 74.7267C85.2165 74.7267 85.4961 75.0062 85.4961 75.351Z" fill="black"/>
<path d="M86.8197 73.5283C86.8197 73.8731 86.5402 74.1531 86.1949 74.1531C85.8497 74.1531 85.5701 73.8731 85.5701 73.5283C85.5701 73.183 85.8497 72.9035 86.1949 72.9035C86.5402 72.9035 86.8197 73.183 86.8197 73.5283Z" fill="black"/>
<path d="M87.8995 71.5397C87.8995 71.885 87.6195 72.165 87.2743 72.165C86.9295 72.165 86.6495 71.885 86.6495 71.5397C86.6495 71.195 86.9295 70.915 87.2743 70.915C87.6195 70.915 87.8995 71.195 87.8995 71.5397Z" fill="black"/>
<path d="M88.978 69.5517C88.978 69.8965 88.698 70.1764 88.3532 70.1764C88.0079 70.1764 87.7284 69.8965 87.7284 69.5517C87.7284 69.2064 88.0079 68.9269 88.3532 68.9269C88.698 68.9269 88.978 69.2064 88.978 69.5517Z" fill="black"/>
<path d="M90.0574 67.5631C90.0574 67.9083 89.7774 68.1883 89.4326 68.1883C89.0873 68.1883 88.8082 67.9083 88.8082 67.5631C88.8082 67.2183 89.0873 66.9388 89.4326 66.9388C89.7774 66.9388 90.0574 67.2183 90.0574 67.5631Z" fill="black"/>
<path d="M90.8801 65.467C90.8801 65.8118 90.6001 66.0918 90.2549 66.0918C89.9101 66.0918 89.6301 65.8118 89.6301 65.467C89.6301 65.1217 89.9101 64.8418 90.2549 64.8418C90.6001 64.8418 90.8801 65.1217 90.8801 65.467Z" fill="black"/>
<path d="M91.5508 63.3065C91.5508 63.6513 91.2708 63.9313 90.926 63.9313C90.5807 63.9313 90.3012 63.6513 90.3012 63.3065C90.3012 62.9612 90.5807 62.6817 90.926 62.6817C91.2708 62.6817 91.5508 62.9612 91.5508 63.3065Z" fill="black"/>
<path d="M92.2214 61.146C92.2214 61.4912 91.9414 61.7712 91.5962 61.7712C91.2514 61.7712 90.9714 61.4912 90.9714 61.146C90.9714 60.8012 91.2514 60.5212 91.5962 60.5212C91.9414 60.5212 92.2214 60.8012 92.2214 61.146Z" fill="black"/>
<path d="M47.0701 93.0102C47.0701 93.355 47.3501 93.6345 47.6949 93.6345C48.0401 93.6345 48.3197 93.355 48.3197 93.0102C48.3197 92.665 48.0401 92.385 47.6949 92.385C47.3501 92.385 47.0701 92.665 47.0701 93.0102Z" fill="black"/>
<path d="M44.8192 92.7831C44.8192 93.1279 45.0992 93.4079 45.444 93.4079C45.7892 93.4079 46.0692 93.1279 46.0692 92.7831C46.0692 92.4379 45.7892 92.1579 45.444 92.1579C45.0992 92.1579 44.8192 92.4379 44.8192 92.7831Z" fill="black"/>
<path d="M42.5687 92.5561C42.5687 92.9009 42.8483 93.1804 43.1935 93.1804C43.5387 93.1804 43.8183 92.9009 43.8183 92.5561C43.8183 92.2108 43.5387 91.9308 43.1935 91.9308C42.8483 91.9308 42.5687 92.2108 42.5687 92.5561Z" fill="black"/>
<path d="M40.3275 92.2809C40.3275 92.6262 40.6075 92.9062 40.9523 92.9062C41.2976 92.9062 41.5767 92.6262 41.5767 92.2809C41.5767 91.9361 41.2976 91.6566 40.9523 91.6566C40.6075 91.6566 40.3275 91.9361 40.3275 92.2809Z" fill="black"/>
<path d="M38.1671 91.6112C38.1671 91.956 38.4466 92.2355 38.7919 92.2355C39.1371 92.2355 39.4166 91.956 39.4166 91.6112C39.4166 91.266 39.1371 90.986 38.7919 90.986C38.4466 90.986 38.1671 91.266 38.1671 91.6112Z" fill="black"/>
<path d="M36.0064 90.9397C36.0064 91.2853 36.2864 91.5644 36.6312 91.5644C36.9765 91.5644 37.256 91.2853 37.256 90.9397C37.256 90.5949 36.9765 90.3149 36.6312 90.3149C36.2864 90.3149 36.0064 90.5949 36.0064 90.9397Z" fill="black"/>
<path d="M33.846 90.2699C33.846 90.6147 34.126 90.8943 34.4708 90.8943C34.816 90.8943 35.0955 90.6147 35.0955 90.2699C35.0955 89.9247 34.816 89.6447 34.4708 89.6447C34.126 89.6447 33.846 89.9247 33.846 90.2699Z" fill="black"/>
<path d="M31.7456 89.4555C31.7456 89.8008 32.0256 90.0808 32.3704 90.0808C32.7156 90.0808 32.9956 89.8008 32.9956 89.4555C32.9956 89.1107 32.7156 88.8308 32.3704 88.8308C32.0256 88.8308 31.7456 89.1107 31.7456 89.4555Z" fill="black"/>
<path d="M29.7576 88.3762C29.7576 88.7219 30.0376 89.001 30.3823 89.001C30.7276 89.001 31.0071 88.7219 31.0071 88.3762C31.0071 88.0309 30.7276 87.7514 30.3823 87.7514C30.0376 87.7514 29.7576 88.0309 29.7576 88.3762Z" fill="black"/>
<path d="M27.7691 87.2972C27.7691 87.642 28.0491 87.922 28.3939 87.922C28.7392 87.922 29.0192 87.642 29.0192 87.2972C29.0192 86.952 28.7392 86.672 28.3939 86.672C28.0491 86.672 27.7691 86.952 27.7691 87.2972Z" fill="black"/>
<path d="M25.7809 86.2179C25.7809 86.5631 26.0609 86.8431 26.4057 86.8431C26.7509 86.8431 27.0309 86.5631 27.0309 86.2179C27.0309 85.8731 26.7509 85.5931 26.4057 85.5931C26.0609 85.5931 25.7809 85.8731 25.7809 86.2179Z" fill="black"/>
<path d="M23.9525 84.9022C23.9525 85.2474 24.2324 85.5274 24.5772 85.5274C24.9225 85.5274 25.2025 85.2474 25.2025 84.9022C25.2025 84.5574 24.9225 84.2774 24.5772 84.2774C24.2324 84.2774 23.9525 84.5574 23.9525 84.9022Z" fill="black"/>
<path d="M22.2077 83.4626C22.2077 83.8074 22.4877 84.0869 22.8325 84.0869C23.1778 84.0869 23.4573 83.8074 23.4573 83.4626C23.4573 83.1173 23.1778 82.8374 22.8325 82.8374C22.4877 82.8374 22.2077 83.1173 22.2077 83.4626Z" fill="black"/>
<path d="M20.4626 82.0226C20.4626 82.3678 20.7426 82.6473 21.0874 82.6473C21.4326 82.6473 21.7121 82.3678 21.7121 82.0226C21.7121 81.6778 21.4326 81.3978 21.0874 81.3978C20.7426 81.3978 20.4626 81.6778 20.4626 82.0226Z" fill="black"/>
<path d="M18.7179 80.5825C18.7179 80.9278 18.9979 81.2077 19.3427 81.2077C19.6879 81.2077 19.967 80.9278 19.967 80.5825C19.967 80.2377 19.6879 79.9582 19.3427 79.9582C18.9979 79.9582 18.7179 80.2377 18.7179 80.5825Z" fill="black"/>
<path d="M17.275 78.8409C17.275 79.1861 17.5545 79.4661 17.8998 79.4661C18.245 79.4661 18.5241 79.1861 18.5241 78.8409C18.5241 78.4961 18.245 78.2166 17.8998 78.2166C17.5545 78.2166 17.275 78.4961 17.275 78.8409Z" fill="black"/>
<path d="M15.8351 77.0962C15.8351 77.441 16.1151 77.721 16.4599 77.721C16.8051 77.721 17.0847 77.441 17.0847 77.0962C17.0847 76.7509 16.8051 76.4714 16.4599 76.4714C16.1151 76.4714 15.8351 76.7509 15.8351 77.0962Z" fill="black"/>
<path d="M14.3954 75.351C14.3954 75.6963 14.6754 75.9763 15.0202 75.9763C15.3654 75.9763 15.6446 75.6963 15.6446 75.351C15.6446 75.0062 15.3654 74.7267 15.0202 74.7267C14.6754 74.7267 14.3954 75.0062 14.3954 75.351Z" fill="black"/>
<path d="M13.0718 73.5278C13.0718 73.8726 13.3518 74.1526 13.6966 74.1526C14.0419 74.1526 14.3214 73.8726 14.3214 73.5278C14.3214 73.1826 14.0419 72.9031 13.6966 72.9031C13.3518 72.9031 13.0718 73.1826 13.0718 73.5278Z" fill="black"/>
<path d="M11.9928 71.5393C11.9928 71.8845 12.2723 72.1645 12.6176 72.1645C12.9628 72.1645 13.2419 71.8845 13.2419 71.5393C13.2419 71.1945 12.9628 70.915 12.6176 70.915C12.2723 70.915 11.9928 71.1945 11.9928 71.5393Z" fill="black"/>
<path d="M10.9133 69.5517C10.9133 69.8964 11.1933 70.1764 11.5381 70.1764C11.8833 70.1764 12.1629 69.8964 12.1629 69.5517C12.1629 69.2064 11.8833 68.9269 11.5381 68.9269C11.1933 68.9269 10.9133 69.2064 10.9133 69.5517Z" fill="black"/>
<path d="M9.83405 67.5631C9.83405 67.9083 10.114 68.1883 10.4588 68.1883C10.8041 68.1883 11.0841 67.9083 11.0841 67.5631C11.0841 67.2183 10.8041 66.9383 10.4588 66.9383C10.114 66.9383 9.83405 67.2183 9.83405 67.5631Z" fill="black"/>
<path d="M9.01187 65.4674C9.01187 65.8122 9.29141 66.0918 9.63665 66.0918C9.98189 66.0918 10.2614 65.8122 10.2614 65.4674C10.2614 65.1222 9.98189 64.8422 9.63665 64.8422C9.29141 64.8422 9.01187 65.1222 9.01187 65.4674Z" fill="black"/>
<path d="M8.34101 63.3065C8.34101 63.6513 8.62099 63.9313 8.96579 63.9313C9.31103 63.9313 9.59057 63.6513 9.59057 63.3065C9.59057 62.9612 9.31103 62.6817 8.96579 62.6817C8.62099 62.6817 8.34101 62.9612 8.34101 63.3065Z" fill="black"/>
<path d="M7.67016 61.146C7.67016 61.4912 7.95014 61.7712 8.29494 61.7712C8.64018 61.7712 8.92016 61.4912 8.92016 61.146C8.92016 60.8012 8.64018 60.5212 8.29494 60.5212C7.95014 60.5212 7.67016 60.8012 7.67016 61.146Z" fill="black"/>
<path d="M50.5705 6.76058C50.5705 6.41534 50.2906 6.1358 49.9458 6.1358C49.6005 6.1358 49.321 6.41534 49.321 6.76058C49.321 7.10582 49.6005 7.38536 49.9458 7.38536C50.2906 7.38536 50.5705 7.10582 50.5705 6.76058Z" fill="black"/>
<path d="M52.8214 6.97783C52.8214 6.63259 52.5419 6.35305 52.1966 6.35305C51.8518 6.35305 51.5719 6.63259 51.5719 6.97783C51.5719 7.32307 51.8518 7.60261 52.1966 7.60261C52.5419 7.60261 52.8214 7.32307 52.8214 6.97783Z" fill="black"/>
<path d="M55.0723 7.2045C55.0723 6.85927 54.7923 6.57972 54.4471 6.57972C54.1023 6.57972 53.8228 6.85927 53.8228 7.2045C53.8228 7.55018 54.1023 7.82928 54.4471 7.82928C54.7923 7.82928 55.0723 7.55018 55.0723 7.2045Z" fill="black"/>
<path d="M57.3228 7.43144C57.3228 7.0862 57.0428 6.80666 56.698 6.80666C56.3528 6.80666 56.0732 7.0862 56.0732 7.43144C56.0732 7.77712 56.3528 8.05622 56.698 8.05622C57.0428 8.05622 57.3228 7.77712 57.3228 7.43144Z" fill="black"/>
<path d="M59.5639 7.70591C59.5639 7.36067 59.284 7.08113 58.9392 7.08113C58.5939 7.08113 58.3144 7.36067 58.3144 7.70591C58.3144 8.05159 58.5939 8.33069 58.9392 8.33069C59.284 8.33069 59.5639 8.05159 59.5639 7.70591Z" fill="black"/>
<path d="M61.7249 8.37655C61.7249 8.03131 61.4449 7.75177 61.0997 7.75177C60.7549 7.75177 60.4753 8.03131 60.4753 8.37655C60.4753 8.72223 60.7549 9.00133 61.0997 9.00133C61.4449 9.00133 61.7249 8.72223 61.7249 8.37655Z" fill="black"/>
<path d="M63.8854 9.0474C63.8854 8.70217 63.6058 8.42262 63.2606 8.42262C62.9154 8.42262 62.6358 8.70217 62.6358 9.0474C62.6358 9.39264 62.9154 9.67218 63.2606 9.67218C63.6058 9.67218 63.8854 9.39264 63.8854 9.0474Z" fill="black"/>
<path d="M66.0459 9.71782C66.0459 9.37258 65.7659 9.09304 65.4211 9.09304C65.0758 9.09304 64.7963 9.37258 64.7963 9.71782C64.7963 10.0635 65.0758 10.3426 65.4211 10.3426C65.7659 10.3426 66.0459 10.0635 66.0459 9.71782Z" fill="black"/>
<path d="M68.146 10.5321C68.146 10.1868 67.8664 9.90728 67.5212 9.90728C67.1759 9.90728 66.8964 10.1868 66.8964 10.5321C66.8964 10.8773 67.1759 11.1568 67.5212 11.1568C67.8664 11.1568 68.146 10.8773 68.146 10.5321Z" fill="black"/>
<path d="M70.1341 11.6109C70.1341 11.2657 69.8541 10.9861 69.5088 10.9861C69.164 10.9861 68.8845 11.2657 68.8845 11.6109C68.8845 11.9566 69.164 12.2357 69.5088 12.2357C69.8541 12.2357 70.1341 11.9566 70.1341 11.6109Z" fill="black"/>
<path d="M72.1222 12.6904C72.1222 12.3451 71.8426 12.0656 71.4974 12.0656C71.1521 12.0656 70.8726 12.3451 70.8726 12.6904C70.8726 13.0356 71.1521 13.3151 71.4974 13.3151C71.8426 13.3151 72.1222 13.0356 72.1222 12.6904Z" fill="black"/>
<path d="M74.1107 13.7694C74.1107 13.4242 73.8307 13.1446 73.4859 13.1446C73.1407 13.1446 72.8611 13.4242 72.8611 13.7694C72.8611 14.1151 73.1407 14.3942 73.4859 14.3942C73.8307 14.3942 74.1107 14.1151 74.1107 13.7694Z" fill="black"/>
<path d="M75.9387 15.0855C75.9387 14.7403 75.6592 14.4607 75.314 14.4607C74.9692 14.4607 74.6892 14.7403 74.6892 15.0855C74.6892 15.4307 74.9692 15.7103 75.314 15.7103C75.6592 15.7103 75.9387 15.4307 75.9387 15.0855Z" fill="black"/>
<path d="M77.6839 16.5249C77.6839 16.1797 77.4039 15.9001 77.0591 15.9001C76.7139 15.9001 76.4343 16.1797 76.4343 16.5249C76.4343 16.8706 76.7139 17.1497 77.0591 17.1497C77.4039 17.1497 77.6839 16.8706 77.6839 16.5249Z" fill="black"/>
<path d="M79.4286 17.9648C79.4286 17.6196 79.149 17.34 78.8038 17.34C78.459 17.34 78.179 17.6196 78.179 17.9648C78.179 18.31 78.459 18.5896 78.8038 18.5896C79.149 18.5896 79.4286 18.31 79.4286 17.9648Z" fill="black"/>
<path d="M81.1737 19.4045C81.1737 19.0592 80.8938 18.7797 80.549 18.7797C80.2037 18.7797 79.9242 19.0592 79.9242 19.4045C79.9242 19.7501 80.2037 20.0292 80.549 20.0292C80.8938 20.0292 81.1737 19.7501 81.1737 19.4045Z" fill="black"/>
<path d="M82.6169 21.146C82.6169 20.8007 82.3369 20.5212 81.9921 20.5212C81.6469 20.5212 81.3673 20.8007 81.3673 21.146C81.3673 21.4916 81.6469 21.7707 81.9921 21.7707C82.3369 21.7707 82.6169 21.4916 82.6169 21.146Z" fill="black"/>
<path d="M84.0565 22.8911C84.0565 22.5459 83.7765 22.2663 83.4312 22.2663C83.0864 22.2663 82.8069 22.5459 82.8069 22.8911C82.8069 23.2368 83.0864 23.5159 83.4312 23.5159C83.7765 23.5159 84.0565 23.2368 84.0565 22.8911Z" fill="black"/>
<path d="M85.4961 24.6363C85.4961 24.291 85.2165 24.0115 84.8713 24.0115C84.5265 24.0115 84.2465 24.291 84.2465 24.6363C84.2465 24.9815 84.5265 25.261 84.8713 25.261C85.2165 25.261 85.4961 24.9815 85.4961 24.6363Z" fill="black"/>
<path d="M86.8197 26.4595C86.8197 26.1143 86.5402 25.8348 86.1949 25.8348C85.8497 25.8348 85.5701 26.1143 85.5701 26.4595C85.5701 26.8048 85.8497 27.0843 86.1949 27.0843C86.5402 27.0843 86.8197 26.8048 86.8197 26.4595Z" fill="black"/>
<path d="M87.899 28.4476C87.899 28.1023 87.6191 27.8228 87.2738 27.8228C86.929 27.8228 86.6495 28.1023 86.6495 28.4476C86.6495 28.7932 86.929 29.0723 87.2738 29.0723C87.6191 29.0723 87.899 28.7932 87.899 28.4476Z" fill="black"/>
<path d="M88.978 30.4358C88.978 30.0905 88.698 29.811 88.3532 29.811C88.0079 29.811 87.7284 30.0905 87.7284 30.4358C87.7284 30.7815 88.0079 31.0606 88.3532 31.0606C88.698 31.0606 88.978 30.7815 88.978 30.4358Z" fill="black"/>
<path d="M90.0574 32.4242C90.0574 32.079 89.7774 31.7995 89.4326 31.7995C89.0873 31.7995 88.8078 32.079 88.8078 32.4242C88.8078 32.7695 89.0873 33.049 89.4326 33.049C89.7774 33.049 90.0574 32.7695 90.0574 32.4242Z" fill="black"/>
<path d="M90.8801 34.5203C90.8801 34.1751 90.6001 33.8955 90.2549 33.8955C89.9101 33.8955 89.6305 34.1751 89.6305 34.5203C89.6305 34.866 89.9101 35.1451 90.2549 35.1451C90.6001 35.1451 90.8801 34.866 90.8801 34.5203Z" fill="black"/>
<path d="M91.5508 36.6812C91.5508 36.336 91.2708 36.0564 90.926 36.0564C90.5807 36.0564 90.3012 36.336 90.3012 36.6812C90.3012 37.0264 90.5807 37.306 90.926 37.306C91.2708 37.306 91.5508 37.0264 91.5508 36.6812Z" fill="black"/>
<path d="M92.2214 38.8414C92.2214 38.4962 91.9414 38.2167 91.5962 38.2167C91.2514 38.2167 90.9718 38.4962 90.9718 38.8414C90.9718 39.1871 91.2514 39.4662 91.5962 39.4662C91.9414 39.4662 92.2214 39.1871 92.2214 38.8414Z" fill="black"/>
<path d="M47.0701 6.97783C47.0701 6.63259 47.3501 6.35305 47.6949 6.35305C48.0401 6.35305 48.3197 6.63259 48.3197 6.97783C48.3197 7.32307 48.0401 7.60261 47.6949 7.60261C47.3501 7.60261 47.0701 7.32307 47.0701 6.97783Z" fill="black"/>
<path d="M44.8192 7.2045C44.8192 6.85927 45.0992 6.57972 45.444 6.57972C45.7892 6.57972 46.0688 6.85927 46.0688 7.2045C46.0688 7.55018 45.7892 7.82928 45.444 7.82928C45.0992 7.82928 44.8192 7.55018 44.8192 7.2045Z" fill="black"/>
<path d="M42.5685 7.43166C42.5685 7.08642 42.8481 6.80688 43.1933 6.80688C43.5385 6.80688 43.8181 7.08642 43.8181 7.43166C43.8181 7.7769 43.5385 8.05644 43.1933 8.05644C42.8481 8.05644 42.5685 7.7769 42.5685 7.43166Z" fill="black"/>
<path d="M40.3273 7.70613C40.3273 7.36089 40.6073 7.08135 40.9521 7.08135C41.2973 7.08135 41.5769 7.36089 41.5769 7.70613C41.5769 8.05137 41.2973 8.33091 40.9521 8.33091C40.6073 8.33091 40.3273 8.05137 40.3273 7.70613Z" fill="black"/>
<path d="M38.1669 8.37677C38.1669 8.03153 38.4464 7.75199 38.7917 7.75199C39.1369 7.75199 39.4164 8.03153 39.4164 8.37677C39.4164 8.722 39.1369 9.00155 38.7917 9.00155C38.4464 9.00155 38.1669 8.722 38.1669 8.37677Z" fill="black"/>
<path d="M36.0064 9.04718C36.0064 8.70195 36.2864 8.4224 36.6312 8.4224C36.9765 8.4224 37.256 8.70195 37.256 9.04718C37.256 9.39286 36.9765 9.67196 36.6312 9.67196C36.2864 9.67196 36.0064 9.39286 36.0064 9.04718Z" fill="black"/>
<path d="M33.8457 9.71804C33.8457 9.3728 34.1257 9.09326 34.4705 9.09326C34.8158 9.09326 35.0953 9.3728 35.0953 9.71804C35.0953 10.0633 34.8158 10.3428 34.4705 10.3428C34.1257 10.3428 33.8457 10.0633 33.8457 9.71804Z" fill="black"/>
<path d="M31.7458 10.5318C31.7458 10.1866 32.0258 9.90706 32.3706 9.90706C32.7158 9.90706 32.9953 10.1866 32.9953 10.5318C32.9953 10.8775 32.7158 11.1566 32.3706 11.1566C32.0258 11.1566 31.7458 10.8775 31.7458 10.5318Z" fill="black"/>
<path d="M29.7576 11.6109C29.7576 11.2657 30.0376 10.9861 30.3823 10.9861C30.7276 10.9861 31.0071 11.2657 31.0071 11.6109C31.0071 11.9566 30.7276 12.2357 30.3823 12.2357C30.0376 12.2357 29.7576 11.9566 29.7576 11.6109Z" fill="black"/>
<path d="M27.7694 12.6901C27.7694 12.3449 28.0494 12.0654 28.3942 12.0654C28.7394 12.0654 29.019 12.3449 29.019 12.6901C29.019 13.0358 28.7394 13.3149 28.3942 13.3149C28.0494 13.3149 27.7694 13.0358 27.7694 12.6901Z" fill="black"/>
<path d="M25.7812 13.7694C25.7812 13.4242 26.0611 13.1446 26.4059 13.1446C26.7512 13.1446 27.0307 13.4242 27.0307 13.7694C27.0307 14.1151 26.7512 14.3942 26.4059 14.3942C26.0611 14.3942 25.7812 14.1151 25.7812 13.7694Z" fill="black"/>
<path d="M23.9527 15.0853C23.9527 14.74 24.2326 14.4605 24.5774 14.4605C24.9227 14.4605 25.2022 14.74 25.2022 15.0853C25.2022 15.431 24.9227 15.7101 24.5774 15.7101C24.2326 15.7101 23.9527 15.431 23.9527 15.0853Z" fill="black"/>
<path d="M22.2075 16.5251C22.2075 16.1799 22.4875 15.9004 22.8323 15.9004C23.1775 15.9004 23.4571 16.1799 23.4571 16.5251C23.4571 16.8704 23.1775 17.1499 22.8323 17.1499C22.4875 17.1499 22.2075 16.8704 22.2075 16.5251Z" fill="black"/>
<path d="M20.4626 17.9648C20.4626 17.6195 20.7426 17.34 21.0874 17.34C21.4326 17.34 21.7121 17.6195 21.7121 17.9648C21.7121 18.31 21.4326 18.5896 21.0874 18.5896C20.7426 18.5896 20.4626 18.31 20.4626 17.9648Z" fill="black"/>
<path d="M18.7177 19.4047C18.7177 19.0594 18.9976 18.7799 19.3424 18.7799C19.6877 18.7799 19.9672 19.0594 19.9672 19.4047C19.9672 19.7499 19.6877 20.0295 19.3424 20.0295C18.9976 20.0295 18.7177 19.7499 18.7177 19.4047Z" fill="black"/>
<path d="M17.2747 21.1462C17.2747 20.8009 17.5543 20.5214 17.8995 20.5214C18.2448 20.5214 18.5243 20.8009 18.5243 21.1462C18.5243 21.4914 18.2448 21.771 17.8995 21.771C17.5543 21.771 17.2747 21.4914 17.2747 21.1462Z" fill="black"/>
<path d="M15.8351 22.8911C15.8351 22.5459 16.1151 22.2663 16.4599 22.2663C16.8051 22.2663 17.0847 22.5459 17.0847 22.8911C17.0847 23.2368 16.8051 23.5159 16.4599 23.5159C16.1151 23.5159 15.8351 23.2368 15.8351 22.8911Z" fill="black"/>
<path d="M14.3952 24.6363C14.3952 24.291 14.6752 24.0115 15.02 24.0115C15.3652 24.0115 15.6448 24.291 15.6448 24.6363C15.6448 24.9815 15.3652 25.261 15.02 25.261C14.6752 25.261 14.3952 24.9815 14.3952 24.6363Z" fill="black"/>
<path d="M13.0718 26.4593C13.0718 26.1141 13.3518 25.8345 13.6966 25.8345C14.0419 25.8345 14.3214 26.1141 14.3214 26.4593C14.3214 26.805 14.0419 27.0841 13.6966 27.0841C13.3518 27.0841 13.0718 26.805 13.0718 26.4593Z" fill="black"/>
<path d="M11.9926 28.4478C11.9926 28.1025 12.2721 27.823 12.6173 27.823C12.9626 27.823 13.2421 28.1025 13.2421 28.4478C13.2421 28.793 12.9626 29.0726 12.6173 29.0726C12.2721 29.0726 11.9926 28.793 11.9926 28.4478Z" fill="black"/>
<path d="M10.9133 30.436C10.9133 30.0908 11.1933 29.8112 11.5381 29.8112C11.8833 29.8112 12.1629 30.0908 12.1629 30.436C12.1629 30.7812 11.8833 31.0608 11.5381 31.0608C11.1933 31.0608 10.9133 30.7812 10.9133 30.436Z" fill="black"/>
<path d="M9.83427 32.424C9.83427 32.0788 10.1143 31.7992 10.4591 31.7992C10.8043 31.7992 11.0838 32.0788 11.0838 32.424C11.0838 32.7697 10.8043 33.0488 10.4591 33.0488C10.1143 33.0488 9.83427 32.7697 9.83427 32.424Z" fill="black"/>
<path d="M9.01165 34.5205C9.01165 34.1753 9.29119 33.8958 9.63643 33.8958C9.98167 33.8958 10.2612 34.1753 10.2612 34.5205C10.2612 34.8658 9.98167 35.1453 9.63643 35.1453C9.29119 35.1453 9.01165 34.8658 9.01165 34.5205Z" fill="black"/>
<path d="M8.34101 36.681C8.34101 36.3357 8.62099 36.0562 8.96579 36.0562C9.31103 36.0562 9.59057 36.3357 9.59057 36.681C9.59057 37.0267 9.31103 37.3058 8.96579 37.3058C8.62099 37.3058 8.34101 37.0267 8.34101 36.681Z" fill="black"/>
<path d="M7.67039 38.8414C7.67039 38.4962 7.95037 38.2167 8.29517 38.2167C8.64041 38.2167 8.91995 38.4962 8.91995 38.8414C8.91995 39.1871 8.64041 39.4662 8.29517 39.4662C7.95037 39.4662 7.67039 39.1871 7.67039 38.8414Z" fill="black"/>
<path d="M48.4969 63.6217C48.8854 62.8228 49.2756 61.9943 49.5423 61.1671C49.5617 61.1063 49.6817 60.7342 49.7381 60.4418C49.7879 60.6716 49.8593 60.8977 49.9555 61.1208C50.0556 61.3616 50.1552 61.6023 50.2549 61.8431C50.567 62.5957 50.9065 63.3356 51.2897 64.0701C51.4343 64.3462 51.5833 64.6253 51.7372 64.9039C51.4656 65.4096 51.2006 65.9176 50.9506 66.4317C50.6041 67.1438 50.2584 67.8713 49.9444 68.6045C49.5265 67.6235 49.0745 66.6557 48.567 65.6949C48.3779 65.3378 48.183 64.9771 47.9832 64.6173C48.1614 64.288 48.3338 63.9568 48.4969 63.6217ZM46.1847 63.7593C46.3576 64.179 46.5392 64.5948 46.7253 65.0093C46.4863 65.5318 46.2637 66.06 46.093 66.5891C46.06 66.6923 45.7385 67.6883 45.9242 67.676C45.9837 67.646 46.0436 67.616 46.1032 67.586C46.3496 67.3263 46.5586 67.0507 46.7302 66.7589L47.1874 66.0058C47.1874 66.0058 47.1883 66.0044 47.1887 66.0036C47.377 66.3933 47.5701 66.7818 47.7742 67.1685C48.2712 68.1094 48.7994 69.0701 49.4048 69.9855C49.3611 70.1103 49.3175 70.2351 49.2773 70.3594C49.224 70.5247 48.7099 72.1182 49.0062 72.0992L49.2932 71.9542C49.5939 71.6376 49.8593 71.3056 50.0908 70.9582C50.3942 71.3506 50.7919 71.8184 50.9052 71.7306C50.9308 71.6579 50.9564 71.5851 50.9815 71.5124C50.9184 71.0701 50.795 70.6363 50.6124 70.2112C50.6045 70.191 50.5961 70.1711 50.5877 70.1513C50.7346 69.9092 50.8814 69.6676 51.0282 69.426C51.6248 68.4432 52.183 67.4551 52.7006 66.4507C52.8955 66.7196 53.2086 67.1235 53.2848 67.0609C53.2989 67.0137 53.3126 66.967 53.3272 66.9198C53.2795 66.6328 53.1962 66.3501 53.0763 66.0728C53.0485 66.0053 53.0203 65.9379 52.9925 65.8708C53.0353 65.7835 53.0811 65.6976 53.1235 65.6103C53.7456 64.332 54.3695 63.0062 54.7967 61.6821C54.8501 61.5172 55.3646 59.9238 55.0679 59.9427C54.9722 59.9912 54.8765 60.0393 54.7809 60.0869C54.3867 60.5027 54.0525 60.9436 53.7778 61.4105C53.534 61.8122 53.2901 62.2143 53.0459 62.616C52.7553 63.0948 52.4766 63.5754 52.2041 64.0578C52.0564 63.7452 51.9039 63.4339 51.7421 63.1239C51.3642 62.3999 50.9634 61.6539 50.4872 60.963C50.4295 60.8792 49.8929 60.1014 49.7606 60.1297C49.7522 60.0979 49.7372 60.0785 49.7112 60.0803C49.6512 60.1103 49.5917 60.1402 49.5317 60.1702C49.2857 60.4299 49.0763 60.7055 48.9048 60.9974L48.4475 61.7505C48.0745 62.3651 47.7253 62.9837 47.4012 63.612C47.1512 63.1984 46.8929 62.7888 46.6116 62.3933C46.5181 62.2619 45.6168 60.9934 45.4361 61.1328C45.4105 61.2059 45.3849 61.2787 45.3593 61.3514C45.4228 61.7937 45.5463 62.2275 45.7288 62.6526L46.1847 63.7593Z" fill="black"/>
<path d="M59.0569 60.2791C58.9427 60.3603 58.8285 60.4405 58.7147 60.5212C58.1927 61.1605 57.7288 61.8285 57.3232 62.5256C56.9661 63.1262 56.6085 63.7262 56.2518 64.3268C55.1345 66.2038 54.0816 68.0838 53.0966 70.0009C52.1257 71.8907 51.1411 73.8493 50.369 75.7787C50.302 75.9458 49.8338 77.1156 49.6614 77.7937C49.657 77.7157 49.6521 77.6376 49.6477 77.5596C49.4211 76.8241 49.1464 76.0896 48.8245 75.3563C48.5507 74.7218 48.2769 74.0869 48.0031 73.452C47.1477 71.4674 46.2606 69.5071 45.3153 67.5455C44.384 65.612 43.4083 63.6173 42.3576 61.7359C42.2266 61.5009 40.9621 59.2364 40.8624 59.4255L40.8823 59.7655C41.1093 60.5009 41.3836 61.2355 41.7055 61.9683C41.9793 62.6032 42.2531 63.2381 42.5269 63.8731C43.3827 65.8576 44.2694 67.8184 45.2143 69.7796C46.1464 71.7135 47.1217 73.7077 48.1724 75.5896C48.295 75.8091 49.4105 77.8069 49.6345 77.9066C49.5829 78.142 49.5798 78.2933 49.6658 78.2761C49.7795 78.1954 49.8937 78.1147 50.0079 78.034C50.53 77.3947 50.9938 76.7271 51.3995 76.03C51.7562 75.4291 52.1138 74.829 52.4709 74.2285C53.5877 72.3519 54.6411 70.4714 55.6261 68.5547C56.5966 66.6641 57.5811 64.706 58.3536 62.7765C58.4502 62.5358 59.3801 60.2139 59.0569 60.2791Z" fill="black"/>
<path d="M58.1495 28.0727C56.1349 28.5692 54.6742 30.4916 54.8197 32.3629C54.9004 33.3898 55.4771 34.3792 56.4652 34.8373C57.4206 35.2817 58.6839 35.1918 59.5344 34.4391C60.3408 33.7262 60.6226 32.6084 59.985 31.8077C59.6433 31.3792 59.0807 31.0798 58.4687 31.1208C58.4431 31.1226 58.4171 31.1265 58.3915 31.1296C58.403 31.1499 58.4105 31.175 58.4154 31.201C58.6931 31.194 58.9766 31.2905 59.2205 31.5397C60.2835 32.6239 58.6993 34.1371 57.3598 33.8315C55.8955 33.4969 55.5648 31.8289 56.2187 30.6402C56.9581 29.2945 58.5904 28.6785 60.0591 29.0339C63.4894 29.8646 63.5159 34.2901 61.2271 36.5388C60.0666 37.6794 58.3267 38.3086 56.7407 37.9784C55.1398 37.6459 53.8488 36.5304 53.1257 35.2165C52.5882 34.2394 52.5163 33.3849 52.4537 32.2592C52.332 30.1058 52.5825 28.5569 52.6411 28.1539C52.6495 28.0952 52.0578 28.2791 51.3699 28.0705C51.4325 31.28 51.1199 34.1768 52.3382 36.2169C53.3223 37.8646 55.0882 38.9943 57.2019 38.9559C59.2408 38.9184 61.2315 37.8333 62.414 36.2248C63.6786 34.5048 63.9048 32.2782 63.1213 30.4784C62.3285 28.6578 60.3695 27.5264 58.1495 28.0727Z" fill="black"/>
<path d="M61.3783 38.2362C59.399 39.6727 56.8056 40.0625 54.6274 39.2252C52.5075 38.4104 50.9524 36.607 50.8227 32.6507L50.8488 32.3844C51.0344 29.4607 50.5943 27.9144 50.2068 27.1405C51.1865 27.5008 52.257 27.6348 53.325 27.4801C53.3585 27.4752 53.3902 27.4677 53.4233 27.4624C53.052 30.5462 53.3285 32.801 53.3285 32.801L53.3408 32.794C53.4277 33.6066 53.698 34.3936 54.1552 35.089C54.7751 36.033 55.7496 36.8579 56.9616 37.0995C58.2522 37.3566 59.6415 36.8368 60.5551 35.8826C62.1878 34.1763 62.4449 30.7543 59.8673 30.0003C58.72 29.6644 57.3541 30.1957 56.9925 31.376C56.9775 31.4249 56.9652 31.4756 56.9555 31.5272C57.2562 31.0277 57.8783 30.6648 58.541 30.6225C59.6565 30.5506 60.6742 31.3002 60.9206 32.2737C61.1786 33.2922 60.6142 34.4025 59.6936 35.0643C58.7134 35.7684 57.3924 35.8469 56.3421 35.4404C54.1706 34.5991 53.6891 31.9836 54.746 30.0431C55.7967 28.1128 58.1116 27.0092 60.306 27.3764C62.7421 27.7843 64.1204 29.9135 64.3201 32.1C64.5291 34.3928 63.4286 36.7481 61.3783 38.2362ZM45.5921 39.1339C43.2337 40.1119 40.5145 39.8522 38.5119 38.4845C36.4378 37.0678 35.4241 34.7085 35.7932 32.3425C36.145 30.0859 37.7403 27.8244 40.3439 27.2733C42.69 26.7768 45.0683 27.7847 46.0564 29.7102C47.0507 31.6458 46.3726 34.3579 44.0207 35.3398C42.8836 35.8143 41.4907 35.8055 40.4987 35.1357C39.567 34.5056 39.041 33.3958 39.3792 32.3363C39.7024 31.3226 40.8276 30.4981 42.0031 30.5109C42.7019 30.5184 43.3368 30.8579 43.6234 31.3544C43.6164 31.3019 43.6067 31.2503 43.5939 31.201C43.287 30.0083 41.8761 29.5369 40.6398 29.9443C37.8637 30.8588 37.9162 34.3592 39.5344 36.0224C40.4396 36.9532 41.8765 37.4117 43.2584 37.0775C44.5569 36.7631 45.6411 35.8632 46.358 34.8601C47.653 33.0493 47.731 30.678 46.7125 28.891C46.7204 28.8923 46.7297 28.8945 46.7354 28.8941C46.6993 28.8456 46.6645 28.7993 46.6287 28.7517C46.5242 28.581 46.4131 28.4139 46.2879 28.2556C46.2046 28.1511 46.1199 28.0541 46.0348 27.9571C43.8876 25.0876 43.0088 23.8641 43.1384 21.8539C43.291 19.4862 44.8073 17.4024 47.0604 16.4148C49.3946 15.3919 52.1459 15.6683 54.2597 17.0682C56.2769 18.4038 57.7196 20.7494 57.0401 23.1176C56.4277 25.2508 54.3479 26.7102 52.0273 26.6159C49.6944 26.5211 47.3898 24.7093 47.5353 22.3451C47.6063 21.2023 48.2628 20.077 49.3721 19.5841C50.414 19.1216 51.731 19.212 52.5974 19.9792C53.4259 20.7129 53.6993 22.0091 53.1393 22.9562C52.8078 23.5193 52.1843 23.8764 51.5714 23.8778C51.6252 23.8963 51.6794 23.9121 51.7332 23.9249C53.0282 24.2309 54.1406 23.3063 54.3219 22.1141C54.7302 19.4377 51.3236 17.8517 48.9634 18.3897C47.6433 18.6908 46.5313 19.6423 46.2112 20.9183C45.9109 22.1172 46.276 23.4152 46.9114 24.4633C47.1706 24.891 47.4837 25.2816 47.836 25.633L47.7853 25.6114C49.5044 27.0903 50.0229 29.1507 50.1548 30.63C50.153 30.6617 50.1508 30.6948 50.1477 30.7336C50.1473 30.7415 50.157 30.7838 50.1719 30.8531C50.2363 31.8191 50.1402 32.4884 50.1402 32.4884C49.515 35.8019 47.69 38.2636 45.5921 39.1339ZM65.6856 30.5118C65.1543 28.2781 63.4511 26.5515 60.9683 26.1564C58.5904 25.7772 56.1384 26.7666 54.6129 28.6339C54.4515 28.8319 54.3091 29.0383 54.1777 29.2486C54.2421 28.5189 54.3483 27.7261 54.4202 27.2252C56.3801 26.6022 57.9286 25.1291 58.5057 23.1789C59.2178 20.7763 58.3056 18.357 56.3898 16.704C54.4982 15.0722 51.8254 14.141 49.2914 14.1282C46.5824 14.1136 44.2376 15.4739 42.9581 17.7415C41.5943 20.1569 41.0476 23.383 42.918 26.0237C41.9206 25.794 40.8496 25.8257 39.7213 26.0559C37.0692 26.5969 35.1556 28.4624 34.4502 30.7852C33.7539 33.0784 34.0979 35.6789 35.2645 37.7393C36.511 39.943 38.9167 41.2115 41.7028 41.1939C44.7271 41.1754 47.4303 39.5669 49.1645 37.3597C49.4008 37.0585 49.8646 36.313 50.235 35.5233C50.4466 36.1763 50.6592 37.3324 51.5917 38.4527C53.041 40.1943 54.418 41.0797 58.1927 41.0427C60.8347 41.0171 63.1887 39.5603 64.5013 37.3456C65.7293 35.2742 66.2094 32.7168 65.6856 30.5118Z" fill="black"/>
<path d="M49.3395 30.9025C49.3351 30.8959 49.3298 30.8897 49.325 30.8831C49.2654 29.1618 48.5631 28.2844 48.5639 28.2844C47.6808 26.9246 46.8003 25.9607 46.336 25.3051C45.3893 23.97 44.8836 22.2385 45.2681 20.6481C45.6481 19.0723 47.019 17.8686 48.6274 17.4479C51.7985 16.6186 56.0459 18.9867 55.3364 22.4572C55.0318 23.9431 53.7213 25.0586 52.1005 24.9982C50.6693 24.9462 49.2094 23.7698 49.5317 22.2989C49.8267 20.9541 51.9797 20.3567 52.5556 21.8703C52.6883 22.2173 52.8964 21.582 52.634 21.0524C52.1442 20.0652 50.9444 19.7217 49.903 20.056C48.8047 20.4087 48.1627 21.477 48.1698 22.5564C48.1759 23.6719 48.8743 24.7059 49.8272 25.3214C51.5644 26.4413 54.0569 26.1702 55.4211 24.6539C56.9233 22.9819 56.6967 20.6521 55.2932 18.9867C53.9056 17.3412 51.6636 16.3606 49.4515 16.5657C47.3832 16.7579 45.4634 17.9418 44.5304 19.7231C43.5635 21.5696 43.9528 23.9859 45.0265 25.4709C45.5018 26.1278 46.7862 27.4307 47.7668 29.3628C48.3241 30.526 48.4475 31.929 48.1358 33.3642C48.138 33.3646 48.142 33.362 48.1451 33.3615C47.9828 33.8972 47.7504 34.4259 47.4387 34.9352C46.5891 36.3241 45.1517 37.5397 43.4361 37.9682C41.7363 38.3933 39.9361 37.8413 38.7809 36.7332C36.5035 34.548 36.8152 30.0017 40.4987 28.9621C42.0763 28.5172 43.7637 29.0613 44.4599 30.4034C45.0754 31.5882 44.6182 33.3196 43.0472 33.7425C41.6102 34.1292 40.0309 32.6614 41.2257 31.4898C41.4996 31.2213 41.8056 31.1062 42.0996 31.0987C42.1063 31.0714 42.1151 31.0454 42.1292 31.0233C42.1018 31.022 42.0745 31.0194 42.0481 31.0189C41.403 31.0101 40.7884 31.3479 40.399 31.8069C39.6733 32.6636 39.8995 33.7963 40.7072 34.485C41.5591 35.2116 42.8898 35.2354 43.9295 34.7271C45.004 34.2032 45.6786 33.1552 45.8298 32.0965C46.1036 30.1671 44.6817 28.2716 42.5816 27.8712C40.2672 27.4307 38.1221 28.6988 37.1658 30.612C36.2213 32.5026 36.317 34.7773 37.545 36.4753C38.6931 38.063 40.7306 39.0688 42.8854 38.9965C45.1195 38.9215 47.1706 37.7204 48.2081 35.9197C48.9735 34.5917 49.2293 33.1133 49.3108 31.6442C49.3117 31.6318 49.3122 31.6199 49.3131 31.608C49.3258 31.3721 49.3342 31.1367 49.3395 30.9025Z" fill="black"/>
<path d="M23.5742 69.6328C23.5098 69.4454 23.4318 69.2875 23.3387 69.1583C23.21 68.9798 23.072 68.862 22.9247 68.806C22.777 68.7496 22.6416 68.7659 22.5186 68.8545C22.4075 68.9348 22.3396 69.0322 22.3158 69.1473C22.2911 69.2628 22.2929 69.3819 22.3198 69.5049C22.3467 69.6275 22.393 69.7919 22.4591 69.9978C22.5429 70.2536 22.6011 70.4679 22.6337 70.6398C22.6663 70.8118 22.6562 70.9859 22.6028 71.1623C22.5495 71.3382 22.4256 71.497 22.2303 71.6372C22.0499 71.7673 21.8581 71.8325 21.6544 71.8347C21.4507 71.8369 21.2501 71.7787 21.0535 71.6605C20.8564 71.5419 20.6778 71.3709 20.5177 71.1486C20.3555 70.9229 20.2422 70.6707 20.1782 70.392C20.1147 70.1134 20.102 69.8422 20.1403 69.579L20.6505 69.4987C20.6086 69.7514 20.6139 69.9974 20.6659 70.2377C20.7179 70.4784 20.8065 70.6852 20.9309 70.8576C21.0781 71.0627 21.236 71.1954 21.4044 71.2545C21.572 71.314 21.7267 71.2928 21.8678 71.191C21.9789 71.1112 22.0473 71.0128 22.0733 70.8964C22.0989 70.78 22.0971 70.6575 22.0689 70.5292C22.0402 70.4008 21.9913 70.2346 21.9221 70.0309C21.8378 69.7805 21.7792 69.5688 21.7461 69.3973C21.7135 69.2249 21.7236 69.0521 21.7766 68.8784C21.829 68.7046 21.9516 68.5486 22.1438 68.4105C22.3123 68.2893 22.4935 68.2276 22.6879 68.2258C22.8828 68.2236 23.0733 68.2796 23.2607 68.3938C23.4476 68.5084 23.6196 68.6738 23.7757 68.8907C23.9084 69.0754 24.0107 69.2761 24.0826 69.4939C24.1544 69.7108 24.1937 69.9216 24.1998 70.1266L23.6857 70.2298C23.6756 70.019 23.6386 69.8202 23.5742 69.6328Z" fill="black"/>
<path d="M27.5082 71.6817L27.6965 72.2196L26.8398 72.1059L26.5858 71.7571L27.5082 71.6817ZM26.3107 72.0477L26.6678 72.4251L23.8464 75.0962L23.4893 74.7187L26.3107 72.0477Z" fill="black"/>
<path d="M30.6401 80.3056C30.3588 80.37 30.0708 80.3047 29.7763 80.1094C29.5986 79.9917 29.4597 79.8418 29.3592 79.6601C29.2591 79.478 29.2005 79.2752 29.1846 79.0512L29.6233 78.8493C29.6432 79.0358 29.6912 79.1998 29.7684 79.3413C29.8451 79.4837 29.9425 79.5935 30.0598 79.6716C30.2225 79.7792 30.3804 79.8118 30.5342 79.769C30.6877 79.7271 30.8257 79.6129 30.9487 79.4282L32.1656 77.5913L31.0506 76.8524L31.3204 76.4449L32.8733 77.474L31.3773 79.732C31.1665 80.0499 30.9209 80.2412 30.6401 80.3056Z" fill="black"/>
<path d="M34.8038 81.3444L36.2518 82.0062L36.3074 79.9569L34.8038 81.3444ZM36.2051 83.5534L36.2328 82.5287L34.4158 81.698L33.6641 82.3916L33.1667 82.1641L36.3135 79.3312L36.806 79.5561L36.7174 83.7875L36.2051 83.5534Z" fill="black"/>
<path d="M42.7186 85.5552L42.1101 85.3991L41.2649 83.3321L40.3954 83.911L40.1432 84.8951L39.6396 84.7659L40.6039 81.0027L41.1074 81.1315L40.566 83.2448L42.9853 81.6129L43.5889 81.7673L41.7194 83.0186L42.7186 85.5552Z" fill="black"/>
<path d="M51.1975 82.889C51.0066 82.8356 50.832 82.81 50.6737 82.8131C50.4533 82.818 50.2782 82.8647 50.1481 82.9542C50.0181 83.0442 49.9546 83.1645 49.9577 83.3162C49.9603 83.4529 50.0022 83.564 50.0833 83.6495C50.1645 83.7346 50.2632 83.8012 50.3801 83.8493C50.496 83.8965 50.6578 83.9516 50.8651 84.0142C51.123 84.0909 51.332 84.1645 51.4925 84.2351C51.6526 84.3061 51.7901 84.4132 51.9048 84.5569C52.0194 84.7011 52.0794 84.8934 52.0842 85.1337C52.0886 85.3559 52.0335 85.5512 51.9198 85.7201C51.8056 85.889 51.6442 86.0208 51.4347 86.1152C51.2253 86.2099 50.9837 86.2602 50.7094 86.2655C50.4312 86.2712 50.1596 86.2214 49.8937 86.1152C49.6283 86.0093 49.3977 85.866 49.2028 85.6848L49.4264 85.2196C49.6107 85.3973 49.8166 85.5331 50.0441 85.6266C50.2712 85.7201 50.4916 85.7646 50.7046 85.7607C50.9572 85.7558 51.1556 85.7007 51.2998 85.5962C51.444 85.4913 51.5146 85.3524 51.511 85.1782C51.5084 85.0415 51.466 84.9295 51.3854 84.8422C51.3038 84.7549 51.2024 84.6866 51.0802 84.6372C50.9586 84.5883 50.7941 84.5336 50.5869 84.4749C50.3329 84.4026 50.1257 84.3308 49.9656 84.2593C49.8051 84.1888 49.6684 84.0825 49.5556 83.9405C49.4427 83.7981 49.384 83.609 49.3792 83.3722C49.3752 83.165 49.4272 82.9807 49.5362 82.8193C49.6451 82.6584 49.7994 82.5327 50 82.4436C50.2002 82.3546 50.4343 82.3074 50.7011 82.3021C50.9286 82.2977 51.1517 82.3277 51.3721 82.3916C51.5917 82.456 51.7875 82.5433 51.9594 82.6548L51.7522 83.1363C51.5732 83.0252 51.3884 82.9428 51.1975 82.889Z" fill="black"/>
<path d="M57.5066 81.5239L56.5692 84.2897L56.8086 85.6006L56.2972 85.6936L56.0622 84.4053L54.1825 82.1301L54.705 82.0349L56.2112 83.7743L56.9846 81.6191L57.5066 81.5239Z" fill="black"/>
<path d="M61.9471 80.7002C61.7377 80.683 61.5379 80.7086 61.3479 80.7765C61.0961 80.8669 60.8876 81.0124 60.7222 81.213C60.5564 81.4141 60.4502 81.6438 60.4052 81.9017C60.3594 82.1597 60.3827 82.4181 60.4753 82.6751C60.5666 82.93 60.7116 83.1429 60.9114 83.3149C61.1111 83.4868 61.3391 83.598 61.5948 83.6482C61.8501 83.6976 62.1036 83.6778 62.3554 83.5874C62.5423 83.5204 62.7117 83.4154 62.8638 83.2726C63.0159 83.1297 63.1371 82.9652 63.2275 82.7796L63.6415 83.0027C63.526 83.2483 63.3682 83.4652 63.1671 83.6531C62.9661 83.8413 62.7434 83.9793 62.4987 84.0671C62.1583 84.1888 61.8184 84.2174 61.4771 84.1531C61.1354 84.0891 60.832 83.9428 60.5666 83.7157C60.3012 83.4886 60.1063 83.2029 59.9828 82.8581C59.8607 82.5164 59.8307 82.1747 59.8937 81.8312C59.9568 81.4886 60.1014 81.1839 60.3285 80.9176C60.5551 80.6522 60.84 80.4573 61.1834 80.3343C61.4312 80.2452 61.6892 80.2073 61.9564 80.2192C62.2231 80.232 62.4727 80.2946 62.7055 80.4079L62.5441 80.8726C62.3558 80.7748 62.157 80.7174 61.9471 80.7002Z" fill="black"/>
<path d="M67.3364 77.3717L67.3549 80.2928L68.0093 81.4529L67.5569 81.7082L66.9131 80.5675L64.3933 79.0318L64.8558 78.7712L66.8479 79.9225L66.8743 77.6328L67.3364 77.3717Z" fill="black"/>
<path d="M69.3148 75.9705L69.7236 75.6491L71.8289 78.321L73.1305 77.2959L73.4295 77.6751L71.7196 79.0221L69.3148 75.9705Z" fill="black"/>
<path d="M76.0349 75.2058L75.6706 75.5766L72.8986 72.8541L73.2629 72.4832L76.0349 75.2058Z" fill="black"/>
<path d="M77.601 71.2302L78.5432 69.9471L76.5476 69.4758L77.601 71.2302ZM80.049 70.3069L79.0512 70.0715L77.8682 71.6817L78.3946 72.5591L78.0706 73L75.9365 69.3426L76.2571 68.9061L80.3823 69.8532L80.049 70.3069Z" fill="black"/>
<path d="M49.9938 9.74882C69.6446 9.74882 86.0485 23.9071 89.5472 42.5579C81.6689 42.408 66.9061 42.307 49.9938 42.307C33.0816 42.307 18.3188 42.408 10.4404 42.5579C13.9391 23.9071 30.343 9.74882 49.9938 9.74882ZM49.9938 43.307C75.1887 43.307 95.6133 43.0835 95.6133 42.807C95.6133 42.7228 93.6945 42.643 90.3131 42.5729C86.8109 23.4988 70.0648 8.99882 49.9938 8.99882C29.9228 8.99882 13.1768 23.4988 9.67457 42.5729C6.29318 42.643 4.37475 42.7228 4.37475 42.807C4.37475 43.0835 24.7989 43.307 49.9938 43.307Z" fill="black"/>
<path d="M49.9938 90.2386C30.343 90.2386 13.9391 76.0807 10.4404 57.4295C18.3188 57.5794 33.0816 57.6804 49.9938 57.6804C66.9061 57.6804 81.6689 57.5794 89.5472 57.4295C86.0485 76.0807 69.6446 90.2386 49.9938 90.2386ZM49.9938 56.6804C24.7989 56.6804 4.37475 56.9039 4.37475 57.1799C4.37475 57.265 6.29318 57.3444 9.67457 57.4145C13.1768 76.4886 29.9228 90.9886 49.9938 90.9886C70.0648 90.9886 86.8109 76.4886 90.3131 57.4145C93.6945 57.3444 95.6133 57.265 95.6133 57.1799C95.6133 56.9039 75.1887 56.6804 49.9938 56.6804Z" fill="black"/>
<path d="M19.168 53.2205C19.2879 53.2465 19.4163 53.2672 19.5534 53.2849C19.6733 53.3021 19.7994 53.3166 19.9321 53.3294C20.0644 53.3422 20.1993 53.3488 20.3364 53.3488C20.5759 53.3488 20.8096 53.3215 21.0362 53.2655C21.2628 53.2099 21.4661 53.1178 21.646 52.9895C21.8259 52.8611 21.9692 52.6967 22.0763 52.4947C22.183 52.2937 22.2364 52.0477 22.2364 51.7571C22.2364 51.5084 22.1746 51.2734 22.0503 51.0507C21.9264 50.8281 21.7681 50.6142 21.5754 50.4088C21.3827 50.2033 21.1773 50.0062 20.959 49.8184C20.7408 49.6297 20.5353 49.4392 20.3431 49.2469C20.1504 49.0543 19.9916 48.8616 19.8678 48.6689C19.7439 48.4762 19.6817 48.2774 19.6817 48.0719C19.6817 47.7641 19.78 47.5265 19.9767 47.3594C20.1737 47.1927 20.4908 47.1089 20.9268 47.1089C20.9956 47.1089 21.0662 47.1116 21.1389 47.1156C21.2117 47.12 21.2818 47.1266 21.3506 47.135C21.4189 47.1433 21.4877 47.1477 21.556 47.1477V46.814C21.4961 46.814 21.4317 46.8096 21.3633 46.8007C21.3034 46.7924 21.2372 46.7862 21.1645 46.7818C21.0917 46.7774 21.0168 46.7752 20.9401 46.7752C20.4775 46.7752 20.0966 46.8801 19.7972 47.09C19.4978 47.2999 19.3479 47.627 19.3479 48.0719C19.3479 48.3118 19.4096 48.5362 19.534 48.7461C19.6579 48.9559 19.8166 49.1614 20.0093 49.3625C20.2015 49.5635 20.407 49.7584 20.6252 49.9467C20.8435 50.1345 21.049 50.3254 21.2416 50.5177C21.4343 50.7108 21.5926 50.9096 21.7165 51.1151C21.8409 51.3201 21.9026 51.5344 21.9026 51.7571C21.9026 52.1676 21.7637 52.4802 21.4855 52.694C21.2073 52.9079 20.8241 53.015 20.3364 53.015C20.0454 53.015 19.78 52.9934 19.5406 52.9507C19.4118 52.9339 19.2879 52.9123 19.168 52.8867V53.2205ZM18.0895 51.6799C18.2778 51.7399 18.4749 51.7871 18.6804 51.821C18.8514 51.8638 19.0463 51.8977 19.2641 51.9238C19.4824 51.9493 19.7028 51.9621 19.9255 51.9621C20.3193 51.9621 20.5163 51.8166 20.5163 51.5256C20.5163 51.4145 20.4564 51.3007 20.3364 51.1857C20.2165 51.0697 20.0644 50.9414 19.8805 50.8003C19.6967 50.6588 19.4996 50.5031 19.2901 50.3316C19.0803 50.1605 18.8832 49.9639 18.6998 49.7412C18.5155 49.5186 18.3633 49.2686 18.2439 48.9899C18.1239 48.7121 18.064 48.3929 18.064 48.0335C18.064 47.6314 18.1367 47.276 18.2822 46.9678C18.4277 46.6596 18.6288 46.403 18.8854 46.1976C19.1424 45.9921 19.444 45.836 19.791 45.7289C20.1376 45.6222 20.5075 45.5688 20.9013 45.5688C21.1067 45.5688 21.3122 45.5794 21.5177 45.6006C21.7231 45.6222 21.907 45.6411 22.0697 45.6583C22.258 45.6839 22.4418 45.7095 22.6217 45.735V48.1363C22.5529 48.1279 22.4762 48.1191 22.3907 48.1107C22.3219 48.1023 22.2452 48.0935 22.1596 48.0851C22.0741 48.0763 21.9842 48.0719 21.8898 48.0719C21.8387 48.0719 21.7743 48.0741 21.6971 48.0785C21.6204 48.0829 21.5472 48.0935 21.4793 48.1107C21.4105 48.1279 21.3506 48.1579 21.2994 48.2006C21.2478 48.2434 21.2222 48.3034 21.2222 48.3801C21.2222 48.4489 21.28 48.5344 21.3955 48.6367C21.511 48.7395 21.6526 48.8594 21.8193 48.9965C21.9864 49.1332 22.1702 49.2915 22.3713 49.4714C22.5723 49.6513 22.7566 49.8567 22.9237 50.0878C23.0904 50.3188 23.2315 50.5803 23.347 50.8708C23.4626 51.1619 23.5203 51.4868 23.5203 51.8466C23.5203 52.2231 23.4603 52.5763 23.3409 52.9057C23.2209 53.2355 23.0349 53.5221 22.7822 53.7659C22.53 54.0097 22.2064 54.2029 21.8131 54.344C21.4189 54.485 20.9528 54.5556 20.4136 54.5556C20.0882 54.5556 19.7862 54.5406 19.5084 54.5111C19.2302 54.4806 18.9842 54.444 18.7703 54.4017C18.5216 54.3585 18.2954 54.3078 18.0895 54.2474V51.6799Z" fill="black"/>
<path d="M27.3721 50.0172H27.0383V53.31H27.3721V50.0172ZM25.7544 48.9903H28.6561V54.3373H25.7544V48.9903Z" fill="black"/>
<path d="M36.7957 47.0322C36.6846 46.9806 36.5602 46.9383 36.4235 46.9035C36.3036 46.8695 36.1621 46.8395 35.9998 46.814C35.8371 46.7884 35.6572 46.7752 35.4606 46.7752C35.0069 46.7752 34.5831 46.8567 34.1894 47.0194C33.7957 47.1821 33.4531 47.4066 33.1621 47.6936C32.8715 47.9802 32.6427 48.3245 32.4756 48.7267C32.3084 49.1292 32.2251 49.5741 32.2251 50.0622C32.2251 50.5503 32.3107 50.9947 32.4817 51.3973C32.6528 51.7999 32.8883 52.1442 33.1881 52.4308C33.4875 52.7178 33.8362 52.9423 34.2344 53.1045C34.6325 53.2677 35.058 53.3488 35.5117 53.3488C36.1025 53.3488 36.6374 53.2099 37.1167 52.9317C37.5959 52.6535 37.9853 52.2831 38.2851 51.821V50.1389H36.9244V50.4471H37.9513V51.7311C37.6859 52.1253 37.3415 52.4374 36.9178 52.6685C36.4941 52.8995 36.0254 53.015 35.5117 53.015C35.1008 53.015 34.7176 52.9445 34.3627 52.8034C34.0077 52.6623 33.6951 52.4612 33.4253 52.1998C33.1559 51.9387 32.9443 51.6266 32.7899 51.2628C32.6361 50.8991 32.5589 50.4983 32.5589 50.0622C32.5589 49.6257 32.6338 49.2258 32.7833 48.8616C32.9332 48.4978 33.1387 48.1857 33.3997 47.9242C33.6607 47.6636 33.9667 47.4621 34.3177 47.321C34.6687 47.1799 35.0496 47.1089 35.4606 47.1089C35.6144 47.1089 35.76 47.1222 35.8971 47.1477C36.0338 47.1733 36.1537 47.1989 36.2564 47.2249C36.3764 47.2588 36.4875 47.2932 36.5902 47.3272L36.7957 47.0322ZM36.6674 48.6883C36.513 48.5516 36.3208 48.4467 36.0893 48.3735C35.8587 48.3012 35.6316 48.2646 35.409 48.2646C35.1607 48.2646 34.9341 48.3096 34.7286 48.3995C34.5232 48.4895 34.3455 48.6133 34.196 48.7716C34.0461 48.9304 33.9284 49.1204 33.8428 49.3431C33.7573 49.5657 33.7145 49.8056 33.7145 50.0622C33.7145 50.3188 33.7613 50.5587 33.8556 50.7809C33.9495 51.004 34.0779 51.194 34.241 51.3523C34.4032 51.5106 34.5937 51.6345 34.812 51.7249C35.0302 51.8148 35.2635 51.8594 35.5117 51.8594C35.8027 51.8594 36.0682 51.7977 36.308 51.6733C36.5474 51.5494 36.7529 51.3801 36.9244 51.1663H36.1537V49.3686H39.4535V52.2192C39.2564 52.5701 39.021 52.8889 38.7472 53.1755C38.4734 53.4626 38.1674 53.7086 37.8292 53.9136C37.491 54.1191 37.125 54.2778 36.7313 54.3889C36.3376 54.5 35.931 54.5556 35.5117 54.5556C34.8953 54.5556 34.3133 54.4401 33.7657 54.209C33.2181 53.978 32.7405 53.6614 32.334 53.2589C31.9275 52.8567 31.6065 52.3819 31.3715 51.8342C31.1356 51.2862 31.0183 50.6958 31.0183 50.0622C31.0183 49.4458 31.1294 48.8638 31.3521 48.3162C31.5748 47.7681 31.8808 47.291 32.2701 46.8845C32.6594 46.478 33.1215 46.157 33.6568 45.9215C34.1916 45.6865 34.767 45.5688 35.3834 45.5688C35.8627 45.5688 36.278 45.6156 36.629 45.7095C36.9795 45.8038 37.2749 45.911 37.5148 46.0309C37.797 46.168 38.0324 46.3175 38.2207 46.4802L36.6674 48.6883Z" fill="black"/>
<path d="M46.0009 53.31V53.0022H43.4334V50.1905H45.8726V49.8823H43.4334V47.1089H46.0009V46.8007H43.0992V53.31H46.0009ZM41.8157 45.7738H46.8611V48.0203H44.5503V48.9705H46.8227V51.1019H44.5503V52.0904H46.9511V54.3373H41.8157V45.7738Z" fill="black"/>
<path d="M53.8713 53.31V53.0022H50.9956V46.8007H50.6618V53.31H53.8713ZM49.3779 45.7738H52.2275V52.0904H54.5904V54.3373H49.3779V45.7738Z" fill="black"/>
<path d="M61.2919 51.6799L60.7138 50.1777L60.1362 51.6799H61.2919ZM60.7138 47.1089L62.7169 52.3603H58.7112L60.7138 47.1089ZM58.3518 53.31L58.5957 52.6685H62.8324L63.0767 53.31H63.4356L60.9581 46.8012H60.47L57.9925 53.31H58.3518ZM59.6869 45.7738H61.7412L64.9894 54.3373H62.2932L62.011 53.5671H59.4175L59.1349 54.3373H56.4387L59.6869 45.7738Z" fill="black"/>
<path d="M68.5842 53.31V47.1089H70.4202V46.8007H66.414V47.1089H68.25V53.31H68.5842ZM67.0049 48.0203H65.4259V45.7738H71.4083V48.0203H69.8294V54.3373H67.0049V48.0203Z" fill="black"/>
<path d="M75.6323 50.0622C75.6323 50.3104 75.679 50.5437 75.7734 50.7619C75.8677 50.9802 75.996 51.1707 76.1587 51.3334C76.321 51.4956 76.5119 51.6244 76.7302 51.7183C76.948 51.8126 77.1817 51.8594 77.4299 51.8594C77.6781 51.8594 77.9114 51.8126 78.1296 51.7183C78.3479 51.6244 78.5384 51.4956 78.7011 51.3334C78.8633 51.1707 78.9916 50.9802 79.086 50.7619C79.1804 50.5437 79.2271 50.3104 79.2271 50.0622C79.2271 49.814 79.1804 49.5807 79.086 49.3625C78.9916 49.1442 78.8633 48.9537 78.7011 48.791C78.5384 48.6288 78.3479 48.5005 78.1296 48.4061C77.9114 48.3118 77.6781 48.2646 77.4299 48.2646C77.1817 48.2646 76.948 48.3118 76.7302 48.4061C76.5119 48.5005 76.321 48.6288 76.1587 48.791C75.996 48.9537 75.8677 49.1442 75.7734 49.3625C75.679 49.5807 75.6323 49.814 75.6323 50.0622ZM77.4299 53.015C77.0194 53.015 76.6358 52.9379 76.2809 52.784C75.9255 52.6297 75.6133 52.418 75.3435 52.1482C75.0737 51.8788 74.862 51.5662 74.7081 51.2108C74.5542 50.8563 74.4771 50.4731 74.4771 50.0622C74.4771 49.6513 74.5542 49.2686 74.7081 48.9132C74.862 48.5578 75.0737 48.2452 75.3435 47.9758C75.6133 47.7059 75.9255 47.4943 76.2809 47.3404C76.6358 47.1865 77.0194 47.1089 77.4299 47.1089C77.8408 47.1089 78.2236 47.1865 78.5789 47.3404C78.9339 47.4943 79.2465 47.7059 79.5163 47.9758C79.7857 48.2452 79.9974 48.5578 80.1517 48.9132C80.306 49.2686 80.3827 49.6513 80.3827 50.0622C80.3827 50.4731 80.306 50.8563 80.1517 51.2108C79.9974 51.5662 79.7857 51.8788 79.5163 52.1482C79.2465 52.418 78.9339 52.6297 78.5789 52.784C78.2236 52.9379 77.8408 53.015 77.4299 53.015ZM74.1433 50.0622C74.1433 50.5159 74.2284 50.9414 74.3999 51.3391C74.571 51.7377 74.8065 52.0865 75.1063 52.3863C75.4052 52.6857 75.7544 52.9207 76.1526 53.0922C76.5503 53.2633 76.9762 53.3488 77.4299 53.3488C77.8832 53.3488 78.3091 53.2633 78.7077 53.0922C79.1054 52.9207 79.4542 52.6857 79.754 52.3863C80.0529 52.0865 80.2888 51.7377 80.4599 51.3391C80.631 50.9414 80.7165 50.5159 80.7165 50.0622C80.7165 49.6085 80.631 49.1826 80.4599 48.7849C80.2888 48.3867 80.0529 48.038 79.754 47.7381C79.4542 47.4387 79.1054 47.2037 78.7077 47.0322C78.3091 46.8611 77.8832 46.7752 77.4299 46.7752C76.9762 46.7752 76.5503 46.8611 76.1526 47.0322C75.7544 47.2037 75.4052 47.4387 75.1063 47.7381C74.8065 48.038 74.571 48.3867 74.3999 48.7849C74.2284 49.1826 74.1433 49.6085 74.1433 50.0622ZM72.9365 50.0622C72.9365 49.4458 73.0538 48.8638 73.2897 48.3162C73.5247 47.7681 73.8457 47.291 74.2522 46.8845C74.6587 46.478 75.1358 46.157 75.6834 45.9215C76.2311 45.6865 76.8135 45.5688 77.4299 45.5688C78.0463 45.5688 78.6283 45.6865 79.1759 45.9215C79.7236 46.157 80.2006 46.478 80.6076 46.8845C81.0141 47.291 81.3351 47.7681 81.5706 48.3162C81.8056 48.8638 81.9237 49.4458 81.9237 50.0622C81.9237 50.6782 81.8056 51.2606 81.5706 51.8082C81.3351 52.3559 81.0141 52.8334 80.6076 53.2399C80.2006 53.6464 79.7236 53.967 79.1759 54.2029C78.6283 54.4379 78.0463 54.5556 77.4299 54.5556C76.8135 54.5556 76.2311 54.4379 75.6834 54.2029C75.1358 53.967 74.6587 53.6464 74.2522 53.2399C73.8457 52.8334 73.5247 52.3559 73.2897 51.8082C73.0538 51.2606 72.9365 50.6782 72.9365 50.0622Z" fill="black"/>
<path d="M26.9997 47.1914L28.1937 45.7588L27.9472 45.5538L26.7532 46.9859L26.9997 47.1914ZM27.6598 44.5569L29.2356 45.8708L27.2973 48.1967L25.7211 46.8827L27.6598 44.5569Z" fill="black"/>
</svg>
